<mxfile host="app.diagrams.net" agent="Mozilla/5.0 (Windows NT 10.0; Win64; x64) AppleWebKit/537.36 (KHTML, like Gecko) Chrome/131.0.0.0 Safari/537.36" version="25.0.1">
  <diagram name="Page-1" id="03018318-947c-dd8e-b7a3-06fadd420f32">
    <mxGraphModel dx="2313" dy="868" grid="1" gridSize="10" guides="1" tooltips="1" connect="1" arrows="1" fold="1" page="1" pageScale="1" pageWidth="1100" pageHeight="850" background="none" math="0" shadow="0">
      <root>
        <mxCell id="0" />
        <mxCell id="1" parent="0" />
        <mxCell id="677b7b8949515195-1" value="" style="whiteSpace=wrap;html=1;rounded=0;shadow=0;labelBackgroundColor=none;strokeColor=#000000;strokeWidth=1;fillColor=none;fontFamily=Verdana;fontSize=12;fontColor=#000000;align=center;comic=1;" parent="1" vertex="1">
          <mxGeometry x="20" y="40" width="1060" height="790" as="geometry" />
        </mxCell>
        <mxCell id="677b7b8949515195-2" value="4th Wall Cafe" style="whiteSpace=wrap;html=1;rounded=0;shadow=0;labelBackgroundColor=none;strokeWidth=1;fontFamily=Verdana;fontSize=28;align=center;comic=1;" parent="1" vertex="1">
          <mxGeometry x="40" y="60" width="300" height="50" as="geometry" />
        </mxCell>
        <mxCell id="677b7b8949515195-4" value="Menu" style="text;html=1;points=[];align=left;verticalAlign=top;spacingTop=-4;fontSize=14;fontFamily=Verdana" parent="1" vertex="1">
          <mxGeometry x="780" y="50" width="60" height="20" as="geometry" />
        </mxCell>
        <mxCell id="677b7b8949515195-5" value="Reports" style="text;html=1;points=[];align=left;verticalAlign=top;spacingTop=-4;fontSize=14;fontFamily=Verdana" parent="1" vertex="1">
          <mxGeometry x="847.6" y="50" width="60" height="20" as="geometry" />
        </mxCell>
        <mxCell id="677b7b8949515195-6" value="Manage" style="text;html=1;points=[];align=left;verticalAlign=top;spacingTop=-4;fontSize=14;fontFamily=Verdana" parent="1" vertex="1">
          <mxGeometry x="930" y="50" width="60" height="20" as="geometry" />
        </mxCell>
        <mxCell id="677b7b8949515195-7" value="Logout" style="text;html=1;points=[];align=left;verticalAlign=top;spacingTop=-4;fontSize=14;fontFamily=Verdana" parent="1" vertex="1">
          <mxGeometry x="1000" y="50" width="60" height="20" as="geometry" />
        </mxCell>
        <mxCell id="677b7b8949515195-9" value="" style="line;strokeWidth=1;html=1;rounded=0;shadow=0;labelBackgroundColor=none;fillColor=none;fontFamily=Verdana;fontSize=14;fontColor=#000000;align=center;comic=1;" parent="1" vertex="1">
          <mxGeometry x="20" y="140" width="1060" height="10" as="geometry" />
        </mxCell>
        <mxCell id="677b7b8949515195-10" value="" style="whiteSpace=wrap;html=1;rounded=0;shadow=0;labelBackgroundColor=none;strokeWidth=1;fillColor=none;fontFamily=Verdana;fontSize=12;align=center;comic=1;" parent="1" vertex="1">
          <mxGeometry x="30" y="160" width="1040" height="50" as="geometry" />
        </mxCell>
        <mxCell id="677b7b8949515195-15" value="&lt;div style=&quot;&quot;&gt;&lt;font style=&quot;font-size: 18px;&quot;&gt;by Thomas Roth&lt;/font&gt;&lt;/div&gt;" style="whiteSpace=wrap;html=1;rounded=0;shadow=0;labelBackgroundColor=none;strokeWidth=1;fillColor=none;fontFamily=Verdana;fontSize=12;align=left;verticalAlign=top;spacing=10;comic=1;" parent="1" vertex="1">
          <mxGeometry x="20" y="700" width="580" height="130" as="geometry" />
        </mxCell>
        <mxCell id="677b7b8949515195-26" value="" style="whiteSpace=wrap;html=1;rounded=0;shadow=0;labelBackgroundColor=none;strokeWidth=1;fillColor=none;fontFamily=Verdana;fontSize=12;align=center;comic=1;" parent="1" vertex="1">
          <mxGeometry x="600" y="700" width="480" height="130" as="geometry" />
        </mxCell>
        <mxCell id="677b7b8949515195-42" value="External Links" style="text;html=1;points=[];align=left;verticalAlign=top;spacingTop=-4;fontSize=14;fontFamily=Verdana" parent="1" vertex="1">
          <mxGeometry x="640" y="718.68" width="170" height="20" as="geometry" />
        </mxCell>
        <mxCell id="xNktOV-b6tnxYs5pCYwV-17" value="" style="dashed=0;outlineConnect=0;html=1;align=center;labelPosition=center;verticalLabelPosition=bottom;verticalAlign=top;shape=mxgraph.webicons.github;gradientColor=#DFDEDE" parent="1" vertex="1">
          <mxGeometry x="650" y="748.68" width="42.4" height="42.4" as="geometry" />
        </mxCell>
        <mxCell id="xNktOV-b6tnxYs5pCYwV-18" value="" style="dashed=0;outlineConnect=0;html=1;align=center;labelPosition=center;verticalLabelPosition=bottom;verticalAlign=top;shape=mxgraph.weblogos.linkedin;fillColor=#0095DB;gradientColor=#006391" parent="1" vertex="1">
          <mxGeometry x="860" y="748.91" width="27.4" height="28.93" as="geometry" />
        </mxCell>
        <mxCell id="xNktOV-b6tnxYs5pCYwV-19" value="My Github" style="text;html=1;align=left;verticalAlign=middle;whiteSpace=wrap;rounded=0;" parent="1" vertex="1">
          <mxGeometry x="692.4" y="754.88" width="60" height="30" as="geometry" />
        </mxCell>
        <mxCell id="xNktOV-b6tnxYs5pCYwV-20" value="&lt;font style=&quot;font-size: 18px;&quot;&gt;Contact Me&lt;/font&gt;" style="text;strokeColor=none;fillColor=none;html=1;fontSize=24;fontStyle=1;verticalAlign=middle;align=center;" parent="1" vertex="1">
          <mxGeometry x="820" y="708.91" width="100" height="40" as="geometry" />
        </mxCell>
        <mxCell id="xNktOV-b6tnxYs5pCYwV-22" value="" style="shape=message;html=1;html=1;outlineConnect=0;labelPosition=center;verticalLabelPosition=bottom;align=center;verticalAlign=top;" parent="1" vertex="1">
          <mxGeometry x="853.7" y="793.25" width="40" height="25.66" as="geometry" />
        </mxCell>
        <mxCell id="xNktOV-b6tnxYs5pCYwV-23" value="Linked In" style="text;html=1;align=center;verticalAlign=middle;whiteSpace=wrap;rounded=0;" parent="1" vertex="1">
          <mxGeometry x="900" y="752.17" width="60" height="30" as="geometry" />
        </mxCell>
        <mxCell id="xNktOV-b6tnxYs5pCYwV-24" value="thomas.roth@aon.at" style="text;html=1;align=center;verticalAlign=middle;whiteSpace=wrap;rounded=0;" parent="1" vertex="1">
          <mxGeometry x="930" y="791.0799999999999" width="60" height="30" as="geometry" />
        </mxCell>
        <mxCell id="z-67hpvK6l74vBA2kNS7-2" value="" style="line;strokeWidth=2;html=1;" parent="1" vertex="1">
          <mxGeometry x="847.6" y="70" width="60" height="10" as="geometry" />
        </mxCell>
        <mxCell id="Wy0h9nK7tvIYCn-riC21-54" value="Orders" style="shape=table;startSize=0;container=1;collapsible=0;childLayout=tableLayout;strokeColor=default;fontSize=16;movable=0;resizable=0;rotatable=0;deletable=0;editable=0;locked=1;connectable=0;" parent="1" vertex="1">
          <mxGeometry x="220" y="224.5" width="820" height="461" as="geometry" />
        </mxCell>
        <mxCell id="Wy0h9nK7tvIYCn-riC21-55" value="" style="shape=tableRow;horizontal=0;startSize=0;swimlaneHead=0;swimlaneBody=0;strokeColor=inherit;top=0;left=0;bottom=0;right=0;collapsible=0;dropTarget=0;fillColor=none;points=[[0,0.5],[1,0.5]];portConstraint=eastwest;fontSize=16;" parent="Wy0h9nK7tvIYCn-riC21-54" vertex="1">
          <mxGeometry width="820" height="46" as="geometry" />
        </mxCell>
        <mxCell id="Wy0h9nK7tvIYCn-riC21-56" value="Order ID" style="shape=partialRectangle;html=1;whiteSpace=wrap;connectable=0;strokeColor=#6c8ebf;overflow=hidden;fillColor=#dae8fc;top=0;left=0;bottom=0;right=0;pointerEvents=1;fontSize=16;" parent="Wy0h9nK7tvIYCn-riC21-55" vertex="1">
          <mxGeometry width="205" height="46" as="geometry">
            <mxRectangle width="205" height="46" as="alternateBounds" />
          </mxGeometry>
        </mxCell>
        <mxCell id="Wy0h9nK7tvIYCn-riC21-57" value="Server" style="shape=partialRectangle;html=1;whiteSpace=wrap;connectable=0;strokeColor=#6c8ebf;overflow=hidden;fillColor=#dae8fc;top=0;left=0;bottom=0;right=0;pointerEvents=1;fontSize=16;" parent="Wy0h9nK7tvIYCn-riC21-55" vertex="1">
          <mxGeometry x="205" width="205" height="46" as="geometry">
            <mxRectangle width="205" height="46" as="alternateBounds" />
          </mxGeometry>
        </mxCell>
        <mxCell id="Wy0h9nK7tvIYCn-riC21-58" value="Order Total" style="shape=partialRectangle;html=1;whiteSpace=wrap;connectable=0;strokeColor=#6c8ebf;overflow=hidden;fillColor=#dae8fc;top=0;left=0;bottom=0;right=0;pointerEvents=1;fontSize=16;" parent="Wy0h9nK7tvIYCn-riC21-55" vertex="1">
          <mxGeometry x="410" width="205" height="46" as="geometry">
            <mxRectangle width="205" height="46" as="alternateBounds" />
          </mxGeometry>
        </mxCell>
        <mxCell id="Wy0h9nK7tvIYCn-riC21-67" style="shape=partialRectangle;html=1;whiteSpace=wrap;connectable=0;strokeColor=#6c8ebf;overflow=hidden;fillColor=#dae8fc;top=0;left=0;bottom=0;right=0;pointerEvents=1;fontSize=16;" parent="Wy0h9nK7tvIYCn-riC21-55" vertex="1">
          <mxGeometry x="615" width="205" height="46" as="geometry">
            <mxRectangle width="205" height="46" as="alternateBounds" />
          </mxGeometry>
        </mxCell>
        <mxCell id="Wy0h9nK7tvIYCn-riC21-59" value="" style="shape=tableRow;horizontal=0;startSize=0;swimlaneHead=0;swimlaneBody=0;strokeColor=inherit;top=0;left=0;bottom=0;right=0;collapsible=0;dropTarget=0;fillColor=none;points=[[0,0.5],[1,0.5]];portConstraint=eastwest;fontSize=16;" parent="Wy0h9nK7tvIYCn-riC21-54" vertex="1">
          <mxGeometry y="46" width="820" height="47" as="geometry" />
        </mxCell>
        <mxCell id="Wy0h9nK7tvIYCn-riC21-60" value="13" style="shape=partialRectangle;html=1;whiteSpace=wrap;connectable=0;strokeColor=inherit;overflow=hidden;fillColor=none;top=0;left=0;bottom=0;right=0;pointerEvents=1;fontSize=16;" parent="Wy0h9nK7tvIYCn-riC21-59" vertex="1">
          <mxGeometry width="205" height="47" as="geometry">
            <mxRectangle width="205" height="47" as="alternateBounds" />
          </mxGeometry>
        </mxCell>
        <mxCell id="Wy0h9nK7tvIYCn-riC21-61" value="Doe, John" style="shape=partialRectangle;html=1;whiteSpace=wrap;connectable=0;strokeColor=inherit;overflow=hidden;fillColor=none;top=0;left=0;bottom=0;right=0;pointerEvents=1;fontSize=16;" parent="Wy0h9nK7tvIYCn-riC21-59" vertex="1">
          <mxGeometry x="205" width="205" height="47" as="geometry">
            <mxRectangle width="205" height="47" as="alternateBounds" />
          </mxGeometry>
        </mxCell>
        <mxCell id="Wy0h9nK7tvIYCn-riC21-62" value="$34,87" style="shape=partialRectangle;html=1;whiteSpace=wrap;connectable=0;strokeColor=inherit;overflow=hidden;fillColor=none;top=0;left=0;bottom=0;right=0;pointerEvents=1;fontSize=16;" parent="Wy0h9nK7tvIYCn-riC21-59" vertex="1">
          <mxGeometry x="410" width="205" height="47" as="geometry">
            <mxRectangle width="205" height="47" as="alternateBounds" />
          </mxGeometry>
        </mxCell>
        <mxCell id="Wy0h9nK7tvIYCn-riC21-68" value="&lt;font color=&quot;#7ea6e0&quot;&gt;Details&lt;/font&gt;" style="shape=partialRectangle;html=1;whiteSpace=wrap;connectable=0;strokeColor=inherit;overflow=hidden;fillColor=none;top=0;left=0;bottom=0;right=0;pointerEvents=1;fontSize=16;" parent="Wy0h9nK7tvIYCn-riC21-59" vertex="1">
          <mxGeometry x="615" width="205" height="47" as="geometry">
            <mxRectangle width="205" height="47" as="alternateBounds" />
          </mxGeometry>
        </mxCell>
        <mxCell id="Wy0h9nK7tvIYCn-riC21-63" value="" style="shape=tableRow;horizontal=0;startSize=0;swimlaneHead=0;swimlaneBody=0;strokeColor=inherit;top=0;left=0;bottom=0;right=0;collapsible=0;dropTarget=0;fillColor=none;points=[[0,0.5],[1,0.5]];portConstraint=eastwest;fontSize=16;" parent="Wy0h9nK7tvIYCn-riC21-54" vertex="1">
          <mxGeometry y="93" width="820" height="46" as="geometry" />
        </mxCell>
        <mxCell id="Wy0h9nK7tvIYCn-riC21-64" value="14" style="shape=partialRectangle;html=1;whiteSpace=wrap;connectable=0;strokeColor=inherit;overflow=hidden;fillColor=none;top=0;left=0;bottom=0;right=0;pointerEvents=1;fontSize=16;" parent="Wy0h9nK7tvIYCn-riC21-63" vertex="1">
          <mxGeometry width="205" height="46" as="geometry">
            <mxRectangle width="205" height="46" as="alternateBounds" />
          </mxGeometry>
        </mxCell>
        <mxCell id="Wy0h9nK7tvIYCn-riC21-65" value="Smith, Jane" style="shape=partialRectangle;html=1;whiteSpace=wrap;connectable=0;strokeColor=inherit;overflow=hidden;fillColor=none;top=0;left=0;bottom=0;right=0;pointerEvents=1;fontSize=16;" parent="Wy0h9nK7tvIYCn-riC21-63" vertex="1">
          <mxGeometry x="205" width="205" height="46" as="geometry">
            <mxRectangle width="205" height="46" as="alternateBounds" />
          </mxGeometry>
        </mxCell>
        <mxCell id="Wy0h9nK7tvIYCn-riC21-66" value="$53,66" style="shape=partialRectangle;html=1;whiteSpace=wrap;connectable=0;strokeColor=inherit;overflow=hidden;fillColor=none;top=0;left=0;bottom=0;right=0;pointerEvents=1;fontSize=16;" parent="Wy0h9nK7tvIYCn-riC21-63" vertex="1">
          <mxGeometry x="410" width="205" height="46" as="geometry">
            <mxRectangle width="205" height="46" as="alternateBounds" />
          </mxGeometry>
        </mxCell>
        <mxCell id="Wy0h9nK7tvIYCn-riC21-69" value="&lt;font color=&quot;#7ea6e0&quot;&gt;Details&lt;/font&gt;" style="shape=partialRectangle;html=1;whiteSpace=wrap;connectable=0;strokeColor=inherit;overflow=hidden;fillColor=none;top=0;left=0;bottom=0;right=0;pointerEvents=1;fontSize=16;" parent="Wy0h9nK7tvIYCn-riC21-63" vertex="1">
          <mxGeometry x="615" width="205" height="46" as="geometry">
            <mxRectangle width="205" height="46" as="alternateBounds" />
          </mxGeometry>
        </mxCell>
        <mxCell id="Wy0h9nK7tvIYCn-riC21-70" style="shape=tableRow;horizontal=0;startSize=0;swimlaneHead=0;swimlaneBody=0;strokeColor=inherit;top=0;left=0;bottom=0;right=0;collapsible=0;dropTarget=0;fillColor=none;points=[[0,0.5],[1,0.5]];portConstraint=eastwest;fontSize=16;" parent="Wy0h9nK7tvIYCn-riC21-54" vertex="1">
          <mxGeometry y="139" width="820" height="46" as="geometry" />
        </mxCell>
        <mxCell id="Wy0h9nK7tvIYCn-riC21-71" value="15" style="shape=partialRectangle;html=1;whiteSpace=wrap;connectable=0;strokeColor=inherit;overflow=hidden;fillColor=none;top=0;left=0;bottom=0;right=0;pointerEvents=1;fontSize=16;" parent="Wy0h9nK7tvIYCn-riC21-70" vertex="1">
          <mxGeometry width="205" height="46" as="geometry">
            <mxRectangle width="205" height="46" as="alternateBounds" />
          </mxGeometry>
        </mxCell>
        <mxCell id="Wy0h9nK7tvIYCn-riC21-72" value="Doe,John" style="shape=partialRectangle;html=1;whiteSpace=wrap;connectable=0;strokeColor=inherit;overflow=hidden;fillColor=none;top=0;left=0;bottom=0;right=0;pointerEvents=1;fontSize=16;" parent="Wy0h9nK7tvIYCn-riC21-70" vertex="1">
          <mxGeometry x="205" width="205" height="46" as="geometry">
            <mxRectangle width="205" height="46" as="alternateBounds" />
          </mxGeometry>
        </mxCell>
        <mxCell id="Wy0h9nK7tvIYCn-riC21-73" value="$46,89" style="shape=partialRectangle;html=1;whiteSpace=wrap;connectable=0;strokeColor=inherit;overflow=hidden;fillColor=none;top=0;left=0;bottom=0;right=0;pointerEvents=1;fontSize=16;" parent="Wy0h9nK7tvIYCn-riC21-70" vertex="1">
          <mxGeometry x="410" width="205" height="46" as="geometry">
            <mxRectangle width="205" height="46" as="alternateBounds" />
          </mxGeometry>
        </mxCell>
        <mxCell id="Wy0h9nK7tvIYCn-riC21-74" value="&lt;font color=&quot;#7ea6e0&quot;&gt;Details&lt;/font&gt;" style="shape=partialRectangle;html=1;whiteSpace=wrap;connectable=0;strokeColor=inherit;overflow=hidden;fillColor=none;top=0;left=0;bottom=0;right=0;pointerEvents=1;fontSize=16;" parent="Wy0h9nK7tvIYCn-riC21-70" vertex="1">
          <mxGeometry x="615" width="205" height="46" as="geometry">
            <mxRectangle width="205" height="46" as="alternateBounds" />
          </mxGeometry>
        </mxCell>
        <mxCell id="Wy0h9nK7tvIYCn-riC21-75" style="shape=tableRow;horizontal=0;startSize=0;swimlaneHead=0;swimlaneBody=0;strokeColor=inherit;top=0;left=0;bottom=0;right=0;collapsible=0;dropTarget=0;fillColor=none;points=[[0,0.5],[1,0.5]];portConstraint=eastwest;fontSize=16;" parent="Wy0h9nK7tvIYCn-riC21-54" vertex="1">
          <mxGeometry y="185" width="820" height="46" as="geometry" />
        </mxCell>
        <mxCell id="Wy0h9nK7tvIYCn-riC21-76" style="shape=partialRectangle;html=1;whiteSpace=wrap;connectable=0;strokeColor=inherit;overflow=hidden;fillColor=none;top=0;left=0;bottom=0;right=0;pointerEvents=1;fontSize=16;" parent="Wy0h9nK7tvIYCn-riC21-75" vertex="1">
          <mxGeometry width="205" height="46" as="geometry">
            <mxRectangle width="205" height="46" as="alternateBounds" />
          </mxGeometry>
        </mxCell>
        <mxCell id="Wy0h9nK7tvIYCn-riC21-77" value="and" style="shape=partialRectangle;html=1;whiteSpace=wrap;connectable=0;strokeColor=inherit;overflow=hidden;fillColor=none;top=0;left=0;bottom=0;right=0;pointerEvents=1;fontSize=16;" parent="Wy0h9nK7tvIYCn-riC21-75" vertex="1">
          <mxGeometry x="205" width="205" height="46" as="geometry">
            <mxRectangle width="205" height="46" as="alternateBounds" />
          </mxGeometry>
        </mxCell>
        <mxCell id="Wy0h9nK7tvIYCn-riC21-78" style="shape=partialRectangle;html=1;whiteSpace=wrap;connectable=0;strokeColor=inherit;overflow=hidden;fillColor=none;top=0;left=0;bottom=0;right=0;pointerEvents=1;fontSize=16;" parent="Wy0h9nK7tvIYCn-riC21-75" vertex="1">
          <mxGeometry x="410" width="205" height="46" as="geometry">
            <mxRectangle width="205" height="46" as="alternateBounds" />
          </mxGeometry>
        </mxCell>
        <mxCell id="Wy0h9nK7tvIYCn-riC21-79" style="shape=partialRectangle;html=1;whiteSpace=wrap;connectable=0;strokeColor=inherit;overflow=hidden;fillColor=none;top=0;left=0;bottom=0;right=0;pointerEvents=1;fontSize=16;" parent="Wy0h9nK7tvIYCn-riC21-75" vertex="1">
          <mxGeometry x="615" width="205" height="46" as="geometry">
            <mxRectangle width="205" height="46" as="alternateBounds" />
          </mxGeometry>
        </mxCell>
        <mxCell id="Wy0h9nK7tvIYCn-riC21-80" style="shape=tableRow;horizontal=0;startSize=0;swimlaneHead=0;swimlaneBody=0;strokeColor=inherit;top=0;left=0;bottom=0;right=0;collapsible=0;dropTarget=0;fillColor=none;points=[[0,0.5],[1,0.5]];portConstraint=eastwest;fontSize=16;" parent="Wy0h9nK7tvIYCn-riC21-54" vertex="1">
          <mxGeometry y="231" width="820" height="46" as="geometry" />
        </mxCell>
        <mxCell id="Wy0h9nK7tvIYCn-riC21-81" style="shape=partialRectangle;html=1;whiteSpace=wrap;connectable=0;strokeColor=inherit;overflow=hidden;fillColor=none;top=0;left=0;bottom=0;right=0;pointerEvents=1;fontSize=16;" parent="Wy0h9nK7tvIYCn-riC21-80" vertex="1">
          <mxGeometry width="205" height="46" as="geometry">
            <mxRectangle width="205" height="46" as="alternateBounds" />
          </mxGeometry>
        </mxCell>
        <mxCell id="Wy0h9nK7tvIYCn-riC21-82" value="so" style="shape=partialRectangle;html=1;whiteSpace=wrap;connectable=0;strokeColor=inherit;overflow=hidden;fillColor=none;top=0;left=0;bottom=0;right=0;pointerEvents=1;fontSize=16;" parent="Wy0h9nK7tvIYCn-riC21-80" vertex="1">
          <mxGeometry x="205" width="205" height="46" as="geometry">
            <mxRectangle width="205" height="46" as="alternateBounds" />
          </mxGeometry>
        </mxCell>
        <mxCell id="Wy0h9nK7tvIYCn-riC21-83" style="shape=partialRectangle;html=1;whiteSpace=wrap;connectable=0;strokeColor=inherit;overflow=hidden;fillColor=none;top=0;left=0;bottom=0;right=0;pointerEvents=1;fontSize=16;" parent="Wy0h9nK7tvIYCn-riC21-80" vertex="1">
          <mxGeometry x="410" width="205" height="46" as="geometry">
            <mxRectangle width="205" height="46" as="alternateBounds" />
          </mxGeometry>
        </mxCell>
        <mxCell id="Wy0h9nK7tvIYCn-riC21-84" style="shape=partialRectangle;html=1;whiteSpace=wrap;connectable=0;strokeColor=inherit;overflow=hidden;fillColor=none;top=0;left=0;bottom=0;right=0;pointerEvents=1;fontSize=16;" parent="Wy0h9nK7tvIYCn-riC21-80" vertex="1">
          <mxGeometry x="615" width="205" height="46" as="geometry">
            <mxRectangle width="205" height="46" as="alternateBounds" />
          </mxGeometry>
        </mxCell>
        <mxCell id="Wy0h9nK7tvIYCn-riC21-85" style="shape=tableRow;horizontal=0;startSize=0;swimlaneHead=0;swimlaneBody=0;strokeColor=inherit;top=0;left=0;bottom=0;right=0;collapsible=0;dropTarget=0;fillColor=none;points=[[0,0.5],[1,0.5]];portConstraint=eastwest;fontSize=16;" parent="Wy0h9nK7tvIYCn-riC21-54" vertex="1">
          <mxGeometry y="277" width="820" height="46" as="geometry" />
        </mxCell>
        <mxCell id="Wy0h9nK7tvIYCn-riC21-86" style="shape=partialRectangle;html=1;whiteSpace=wrap;connectable=0;strokeColor=inherit;overflow=hidden;fillColor=none;top=0;left=0;bottom=0;right=0;pointerEvents=1;fontSize=16;" parent="Wy0h9nK7tvIYCn-riC21-85" vertex="1">
          <mxGeometry width="205" height="46" as="geometry">
            <mxRectangle width="205" height="46" as="alternateBounds" />
          </mxGeometry>
        </mxCell>
        <mxCell id="Wy0h9nK7tvIYCn-riC21-87" value="on" style="shape=partialRectangle;html=1;whiteSpace=wrap;connectable=0;strokeColor=inherit;overflow=hidden;fillColor=none;top=0;left=0;bottom=0;right=0;pointerEvents=1;fontSize=16;" parent="Wy0h9nK7tvIYCn-riC21-85" vertex="1">
          <mxGeometry x="205" width="205" height="46" as="geometry">
            <mxRectangle width="205" height="46" as="alternateBounds" />
          </mxGeometry>
        </mxCell>
        <mxCell id="Wy0h9nK7tvIYCn-riC21-88" style="shape=partialRectangle;html=1;whiteSpace=wrap;connectable=0;strokeColor=inherit;overflow=hidden;fillColor=none;top=0;left=0;bottom=0;right=0;pointerEvents=1;fontSize=16;" parent="Wy0h9nK7tvIYCn-riC21-85" vertex="1">
          <mxGeometry x="410" width="205" height="46" as="geometry">
            <mxRectangle width="205" height="46" as="alternateBounds" />
          </mxGeometry>
        </mxCell>
        <mxCell id="Wy0h9nK7tvIYCn-riC21-89" style="shape=partialRectangle;html=1;whiteSpace=wrap;connectable=0;strokeColor=inherit;overflow=hidden;fillColor=none;top=0;left=0;bottom=0;right=0;pointerEvents=1;fontSize=16;" parent="Wy0h9nK7tvIYCn-riC21-85" vertex="1">
          <mxGeometry x="615" width="205" height="46" as="geometry">
            <mxRectangle width="205" height="46" as="alternateBounds" />
          </mxGeometry>
        </mxCell>
        <mxCell id="Wy0h9nK7tvIYCn-riC21-90" style="shape=tableRow;horizontal=0;startSize=0;swimlaneHead=0;swimlaneBody=0;strokeColor=inherit;top=0;left=0;bottom=0;right=0;collapsible=0;dropTarget=0;fillColor=none;points=[[0,0.5],[1,0.5]];portConstraint=eastwest;fontSize=16;" parent="Wy0h9nK7tvIYCn-riC21-54" vertex="1">
          <mxGeometry y="323" width="820" height="46" as="geometry" />
        </mxCell>
        <mxCell id="Wy0h9nK7tvIYCn-riC21-91" style="shape=partialRectangle;html=1;whiteSpace=wrap;connectable=0;strokeColor=inherit;overflow=hidden;fillColor=none;top=0;left=0;bottom=0;right=0;pointerEvents=1;fontSize=16;" parent="Wy0h9nK7tvIYCn-riC21-90" vertex="1">
          <mxGeometry width="205" height="46" as="geometry">
            <mxRectangle width="205" height="46" as="alternateBounds" />
          </mxGeometry>
        </mxCell>
        <mxCell id="Wy0h9nK7tvIYCn-riC21-92" value="..." style="shape=partialRectangle;html=1;whiteSpace=wrap;connectable=0;strokeColor=inherit;overflow=hidden;fillColor=none;top=0;left=0;bottom=0;right=0;pointerEvents=1;fontSize=16;" parent="Wy0h9nK7tvIYCn-riC21-90" vertex="1">
          <mxGeometry x="205" width="205" height="46" as="geometry">
            <mxRectangle width="205" height="46" as="alternateBounds" />
          </mxGeometry>
        </mxCell>
        <mxCell id="Wy0h9nK7tvIYCn-riC21-93" style="shape=partialRectangle;html=1;whiteSpace=wrap;connectable=0;strokeColor=inherit;overflow=hidden;fillColor=none;top=0;left=0;bottom=0;right=0;pointerEvents=1;fontSize=16;" parent="Wy0h9nK7tvIYCn-riC21-90" vertex="1">
          <mxGeometry x="410" width="205" height="46" as="geometry">
            <mxRectangle width="205" height="46" as="alternateBounds" />
          </mxGeometry>
        </mxCell>
        <mxCell id="Wy0h9nK7tvIYCn-riC21-94" style="shape=partialRectangle;html=1;whiteSpace=wrap;connectable=0;strokeColor=inherit;overflow=hidden;fillColor=none;top=0;left=0;bottom=0;right=0;pointerEvents=1;fontSize=16;" parent="Wy0h9nK7tvIYCn-riC21-90" vertex="1">
          <mxGeometry x="615" width="205" height="46" as="geometry">
            <mxRectangle width="205" height="46" as="alternateBounds" />
          </mxGeometry>
        </mxCell>
        <mxCell id="Wy0h9nK7tvIYCn-riC21-95" style="shape=tableRow;horizontal=0;startSize=0;swimlaneHead=0;swimlaneBody=0;strokeColor=inherit;top=0;left=0;bottom=0;right=0;collapsible=0;dropTarget=0;fillColor=none;points=[[0,0.5],[1,0.5]];portConstraint=eastwest;fontSize=16;" parent="Wy0h9nK7tvIYCn-riC21-54" vertex="1">
          <mxGeometry y="369" width="820" height="46" as="geometry" />
        </mxCell>
        <mxCell id="Wy0h9nK7tvIYCn-riC21-96" style="shape=partialRectangle;html=1;whiteSpace=wrap;connectable=0;strokeColor=inherit;overflow=hidden;fillColor=none;top=0;left=0;bottom=0;right=0;pointerEvents=1;fontSize=16;" parent="Wy0h9nK7tvIYCn-riC21-95" vertex="1">
          <mxGeometry width="205" height="46" as="geometry">
            <mxRectangle width="205" height="46" as="alternateBounds" />
          </mxGeometry>
        </mxCell>
        <mxCell id="Wy0h9nK7tvIYCn-riC21-97" style="shape=partialRectangle;html=1;whiteSpace=wrap;connectable=0;strokeColor=inherit;overflow=hidden;fillColor=none;top=0;left=0;bottom=0;right=0;pointerEvents=1;fontSize=16;" parent="Wy0h9nK7tvIYCn-riC21-95" vertex="1">
          <mxGeometry x="205" width="205" height="46" as="geometry">
            <mxRectangle width="205" height="46" as="alternateBounds" />
          </mxGeometry>
        </mxCell>
        <mxCell id="Wy0h9nK7tvIYCn-riC21-98" style="shape=partialRectangle;html=1;whiteSpace=wrap;connectable=0;strokeColor=inherit;overflow=hidden;fillColor=none;top=0;left=0;bottom=0;right=0;pointerEvents=1;fontSize=16;" parent="Wy0h9nK7tvIYCn-riC21-95" vertex="1">
          <mxGeometry x="410" width="205" height="46" as="geometry">
            <mxRectangle width="205" height="46" as="alternateBounds" />
          </mxGeometry>
        </mxCell>
        <mxCell id="Wy0h9nK7tvIYCn-riC21-99" style="shape=partialRectangle;html=1;whiteSpace=wrap;connectable=0;strokeColor=inherit;overflow=hidden;fillColor=none;top=0;left=0;bottom=0;right=0;pointerEvents=1;fontSize=16;" parent="Wy0h9nK7tvIYCn-riC21-95" vertex="1">
          <mxGeometry x="615" width="205" height="46" as="geometry">
            <mxRectangle width="205" height="46" as="alternateBounds" />
          </mxGeometry>
        </mxCell>
        <mxCell id="Wy0h9nK7tvIYCn-riC21-100" style="shape=tableRow;horizontal=0;startSize=0;swimlaneHead=0;swimlaneBody=0;strokeColor=inherit;top=0;left=0;bottom=0;right=0;collapsible=0;dropTarget=0;fillColor=none;points=[[0,0.5],[1,0.5]];portConstraint=eastwest;fontSize=16;" parent="Wy0h9nK7tvIYCn-riC21-54" vertex="1">
          <mxGeometry y="415" width="820" height="46" as="geometry" />
        </mxCell>
        <mxCell id="Wy0h9nK7tvIYCn-riC21-101" style="shape=partialRectangle;html=1;whiteSpace=wrap;connectable=0;strokeColor=inherit;overflow=hidden;fillColor=none;top=0;left=0;bottom=0;right=0;pointerEvents=1;fontSize=16;" parent="Wy0h9nK7tvIYCn-riC21-100" vertex="1">
          <mxGeometry width="205" height="46" as="geometry">
            <mxRectangle width="205" height="46" as="alternateBounds" />
          </mxGeometry>
        </mxCell>
        <mxCell id="Wy0h9nK7tvIYCn-riC21-102" style="shape=partialRectangle;html=1;whiteSpace=wrap;connectable=0;strokeColor=inherit;overflow=hidden;fillColor=none;top=0;left=0;bottom=0;right=0;pointerEvents=1;fontSize=16;" parent="Wy0h9nK7tvIYCn-riC21-100" vertex="1">
          <mxGeometry x="205" width="205" height="46" as="geometry">
            <mxRectangle width="205" height="46" as="alternateBounds" />
          </mxGeometry>
        </mxCell>
        <mxCell id="Wy0h9nK7tvIYCn-riC21-103" style="shape=partialRectangle;html=1;whiteSpace=wrap;connectable=0;strokeColor=inherit;overflow=hidden;fillColor=none;top=0;left=0;bottom=0;right=0;pointerEvents=1;fontSize=16;" parent="Wy0h9nK7tvIYCn-riC21-100" vertex="1">
          <mxGeometry x="410" width="205" height="46" as="geometry">
            <mxRectangle width="205" height="46" as="alternateBounds" />
          </mxGeometry>
        </mxCell>
        <mxCell id="Wy0h9nK7tvIYCn-riC21-104" style="shape=partialRectangle;html=1;whiteSpace=wrap;connectable=0;strokeColor=inherit;overflow=hidden;fillColor=none;top=0;left=0;bottom=0;right=0;pointerEvents=1;fontSize=16;" parent="Wy0h9nK7tvIYCn-riC21-100" vertex="1">
          <mxGeometry x="615" width="205" height="46" as="geometry">
            <mxRectangle width="205" height="46" as="alternateBounds" />
          </mxGeometry>
        </mxCell>
        <mxCell id="Wy0h9nK7tvIYCn-riC21-105" value="" style="verticalLabelPosition=bottom;shadow=0;dashed=0;align=center;html=1;verticalAlign=top;strokeWidth=1;shape=mxgraph.mockup.navigation.scrollBar;strokeColor=#999999;barPos=98.857;fillColor2=#99ddff;strokeColor2=none;direction=north;" parent="1" vertex="1">
          <mxGeometry x="1050" y="230" width="20" height="450" as="geometry" />
        </mxCell>
        <mxCell id="Wy0h9nK7tvIYCn-riC21-108" value="Total Revenue:&lt;div&gt;&lt;br&gt;&lt;/div&gt;&lt;div&gt;&lt;font style=&quot;font-size: 24px;&quot;&gt;$1234,56&lt;/font&gt;&lt;/div&gt;" style="rounded=0;whiteSpace=wrap;html=1;" parent="1" vertex="1">
          <mxGeometry x="35" y="420" width="170" height="60" as="geometry" />
        </mxCell>
        <mxCell id="HEE8X-NlxO-QjpKQm_0w-60" value="Orders" style="html=1;shadow=0;dashed=0;shape=mxgraph.bootstrap.rrect;rSize=5;strokeColor=none;strokeWidth=1;fillColor=none;fontColor=#0085FC;whiteSpace=wrap;align=center;verticalAlign=middle;spacingLeft=0;fontStyle=0;fontSize=16;spacing=5;" parent="1" vertex="1">
          <mxGeometry x="830" y="165" width="60" height="40" as="geometry" />
        </mxCell>
        <mxCell id="HEE8X-NlxO-QjpKQm_0w-61" value="Item/Category" style="html=1;shadow=0;dashed=0;shape=mxgraph.bootstrap.rrect;rSize=5;strokeColor=none;strokeWidth=1;fillColor=none;fontColor=#0085FC;whiteSpace=wrap;align=center;verticalAlign=middle;spacingLeft=0;fontStyle=0;fontSize=16;spacing=5;" parent="1" vertex="1">
          <mxGeometry x="960" y="165" width="60" height="40" as="geometry" />
        </mxCell>
        <mxCell id="HEE8X-NlxO-QjpKQm_0w-62" value="" style="line;strokeWidth=1;rotatable=0;dashed=0;labelPosition=right;align=left;verticalAlign=middle;spacingTop=0;spacingLeft=6;points=[];portConstraint=eastwest;" parent="1" vertex="1">
          <mxGeometry x="830" y="190" width="60" height="10" as="geometry" />
        </mxCell>
        <mxCell id="HEE8X-NlxO-QjpKQm_0w-64" value="&lt;span style=&quot;font-size: 12px;&quot;&gt;4thWallCafe/Reports/Orders&lt;/span&gt;" style="html=1;strokeWidth=1;shadow=0;dashed=0;shape=mxgraph.ios7ui.url;fillColor=#e0e0e0;strokeColor=#c0c0c0;buttonText=;strokeColor2=#222222;fontColor=#222222;fontSize=8;spacingTop=2;align=center;whiteSpace=wrap;" parent="1" vertex="1">
          <mxGeometry x="35" y="10" width="1030" height="20" as="geometry" />
        </mxCell>
        <mxCell id="1ZXmZ7BLw8k7tDr2qM1U-1" value="Order ID" style="html=1;shadow=0;dashed=0;shape=mxgraph.bootstrap.rrect;rSize=5;strokeColor=none;strokeWidth=1;fillColor=#6C767D;fontColor=#ffffff;whiteSpace=wrap;align=right;verticalAlign=middle;fontStyle=0;fontSize=14;spacingRight=20;" parent="1" vertex="1">
          <mxGeometry x="470" y="166.12" width="140" height="35" as="geometry" />
        </mxCell>
        <mxCell id="1ZXmZ7BLw8k7tDr2qM1U-2" value="" style="shape=triangle;direction=south;fillColor=#ffffff;strokeColor=none;perimeter=none;" parent="1ZXmZ7BLw8k7tDr2qM1U-1" vertex="1">
          <mxGeometry x="1" y="0.5" width="10" height="5" relative="1" as="geometry">
            <mxPoint x="-17" y="-2.5" as="offset" />
          </mxGeometry>
        </mxCell>
        <mxCell id="1ZXmZ7BLw8k7tDr2qM1U-3" value="Order By" style="text;html=1;align=center;verticalAlign=middle;whiteSpace=wrap;rounded=0;" parent="1" vertex="1">
          <mxGeometry x="390" y="169.62" width="60" height="30" as="geometry" />
        </mxCell>
        <mxCell id="6gsFkhlYqxvsRugkcd9a-3" value="&lt;font style=&quot;font-size: 14px;&quot;&gt;Apply&lt;/font&gt;" style="rounded=1;html=1;shadow=0;dashed=0;whiteSpace=wrap;fontSize=10;fillColor=#dae8fc;align=center;strokeColor=#6c8ebf;" vertex="1" parent="1">
          <mxGeometry x="650.0000000000001" y="165.62" width="105.5" height="36.88" as="geometry" />
        </mxCell>
        <mxCell id="6gsFkhlYqxvsRugkcd9a-6" value="&lt;font face=&quot;Helvetica&quot;&gt;From&lt;/font&gt;" style="rounded=1;arcSize=9;fillColor=#F7F8F9;align=left;spacingLeft=5;strokeColor=#DEE1E6;html=1;strokeWidth=2;fontColor=#596780;fontSize=12;sketch=1;hachureGap=4;pointerEvents=0;fontFamily=Architects Daughter;fontSource=https%3A%2F%2Ffonts.googleapis.com%2Fcss%3Ffamily%3DArchitects%2BDaughter;" vertex="1" parent="1">
          <mxGeometry x="50" y="168.12" width="150" height="33" as="geometry" />
        </mxCell>
        <mxCell id="6gsFkhlYqxvsRugkcd9a-7" value="" style="shape=mxgraph.gmdl.calendar;fillColor=#5A6881;strokeColor=none;sketch=0;hachureGap=4;pointerEvents=0;fontFamily=Architects Daughter;fontSource=https%3A%2F%2Ffonts.googleapis.com%2Fcss%3Ffamily%3DArchitects%2BDaughter;fontSize=20;" vertex="1" parent="6gsFkhlYqxvsRugkcd9a-6">
          <mxGeometry x="1" y="0.5" width="18" height="18" relative="1" as="geometry">
            <mxPoint x="-29" y="-9" as="offset" />
          </mxGeometry>
        </mxCell>
        <mxCell id="6gsFkhlYqxvsRugkcd9a-8" value="&lt;font face=&quot;Helvetica&quot;&gt;To&lt;/font&gt;" style="rounded=1;arcSize=9;fillColor=#F7F8F9;align=left;spacingLeft=5;strokeColor=#DEE1E6;html=1;strokeWidth=2;fontColor=#596780;fontSize=12;sketch=1;hachureGap=4;pointerEvents=0;fontFamily=Architects Daughter;fontSource=https%3A%2F%2Ffonts.googleapis.com%2Fcss%3Ffamily%3DArchitects%2BDaughter;" vertex="1" parent="1">
          <mxGeometry x="230" y="167.56" width="150" height="33" as="geometry" />
        </mxCell>
        <mxCell id="6gsFkhlYqxvsRugkcd9a-9" value="" style="shape=mxgraph.gmdl.calendar;fillColor=#5A6881;strokeColor=none;sketch=0;hachureGap=4;pointerEvents=0;fontFamily=Architects Daughter;fontSource=https%3A%2F%2Ffonts.googleapis.com%2Fcss%3Ffamily%3DArchitects%2BDaughter;fontSize=20;" vertex="1" parent="6gsFkhlYqxvsRugkcd9a-8">
          <mxGeometry x="1" y="0.5" width="18" height="18" relative="1" as="geometry">
            <mxPoint x="-29" y="-9" as="offset" />
          </mxGeometry>
        </mxCell>
      </root>
    </mxGraphModel>
  </diagram>
</mxfile>
